<svg width="121" height="48" viewBox="0 0 121 48" fill="none" xmlns="http://www.w3.org/2000/svg">
<path d="M12.1097 8.79814C16.3509 8.79814 20.0155 9.59629 23.1033 11.1926C26.2284 12.7517 28.6095 14.9977 30.2464 17.9304C31.9206 20.8631 32.7576 24.3155 32.7576 28.2877C32.7576 32.2599 31.9206 35.7123 30.2464 38.645C28.6095 41.5406 26.2284 43.768 23.1033 45.3272C20.0155 46.8492 16.3509 47.6102 12.1097 47.6102H0V8.79814H12.1097ZM12.1097 43.4339C17.1322 43.4339 20.9641 42.116 23.6056 39.4803C26.247 36.8074 27.5678 33.0766 27.5678 28.2877C27.5678 23.4617 26.2284 19.6937 23.5498 16.9838C20.9083 14.2738 17.095 12.9188 12.1097 12.9188H5.07827V43.4339H12.1097Z" fill="#1E1E1E"/>
<path d="M57.0904 48C53.4817 48 50.1892 47.1647 47.2129 45.4942C44.2366 43.7865 41.8742 41.4292 40.1257 38.4223C38.4143 35.3782 37.5586 31.9629 37.5586 28.1763C37.5586 24.3898 38.4143 20.993 40.1257 17.9861C41.8742 14.942 44.2366 12.5847 47.2129 10.9142C50.1892 9.2065 53.4817 8.35267 57.0904 8.35267C60.7364 8.35267 64.0475 9.2065 67.0238 10.9142C70 12.5847 72.3438 14.9234 74.0552 17.9304C75.7666 20.9374 76.6222 24.3527 76.6222 28.1763C76.6222 32 75.7666 35.4153 74.0552 38.4223C72.3438 41.4292 70 43.7865 67.0238 45.4942C64.0475 47.1647 60.7364 48 57.0904 48ZM57.0904 43.6009C59.8063 43.6009 62.2431 42.9698 64.4009 41.7077C66.5959 40.4455 68.3073 38.645 69.535 36.3063C70.7999 33.9675 71.4324 31.2575 71.4324 28.1763C71.4324 25.058 70.7999 22.348 69.535 20.0464C68.3073 17.7077 66.6145 15.9072 64.4567 14.645C62.2989 13.3828 59.8435 12.7517 57.0904 12.7517C54.3374 12.7517 51.882 13.3828 49.7242 14.645C47.5664 15.9072 45.855 17.7077 44.5901 20.0464C43.3624 22.348 42.7485 25.058 42.7485 28.1763C42.7485 31.2575 43.3624 33.9675 44.5901 36.3063C45.855 38.645 47.5664 40.4455 49.7242 41.7077C51.9192 42.9698 54.3746 43.6009 57.0904 43.6009Z" fill="#1E1E1E"/>
<path d="M85.9491 12.1392C84.9818 12.1392 84.1634 11.8051 83.4937 11.1369C82.824 10.4687 82.4892 9.65197 82.4892 8.68677C82.4892 7.72158 82.824 6.90487 83.4937 6.23666C84.1634 5.56844 84.9818 5.23434 85.9491 5.23434C86.8792 5.23434 87.6605 5.56844 88.2929 6.23666C88.9626 6.90487 89.2974 7.72158 89.2974 8.68677C89.2974 9.65197 88.9626 10.4687 88.2929 11.1369C87.6605 11.8051 86.8792 12.1392 85.9491 12.1392ZM88.4045 17.0951V47.6102H83.3263V17.0951H88.4045Z" fill="#1E1E1E"/>
<path d="M121 8.79814V12.9188H110.397V47.6102H105.319V12.9188H94.66V8.79814H121Z" fill="#1E1E1E"/>
<path d="M93.083 7.23898C93.083 11.237 89.835 14.478 85.8284 14.478C81.8217 14.478 78.5737 11.237 78.5737 7.23898C78.5737 3.241 81.8217 0 85.8284 0C89.835 0 93.083 3.241 93.083 7.23898Z" fill="#F56B00"/>
</svg>
